<?xml version="1.0"?>
<svg xmlns="http://www.w3.org/2000/svg" xmlns:xlink="http://www.w3.org/1999/xlink" xmlns:svgjs="http://svgjs.com/svgjs" version="1.1" width="512" height="512" x="0" y="0" viewBox="0 0 511.75 511.75" style="enable-background:new 0 0 512 512" xml:space="preserve" class=""><g><g xmlns="http://www.w3.org/2000/svg"><path d="m120.929 120.986-3.906-9.25c-8.234-20.783-18.062-34.502-40.928-38.172l-21.142 62.354c-6.447 19.014-5.264 39.607 2.691 57.507 15.636-28.316 37.318-53.116 63.285-72.439z" fill="#aa956f" data-original="#000000" style="" class=""/><path d="m188.647 51.801c-12.739-31.473-42.892-51.801-76.856-51.801h-10.753l-15.22 44.889c35.541 7.703 51.892 37.407 60.705 59.597 17.391-9.596 35.992-16.862 55.253-21.602z" fill="#aa956f" data-original="#000000" style="" class=""/><path d="m394.727 111.736-.127.311-3.776 8.941c25.962 19.321 47.644 44.118 63.28 72.428 7.959-17.909 9.138-38.493 2.694-57.499l-21.142-62.354c-22.867 3.671-32.695 17.391-40.929 38.173z" fill="#aa956f" data-original="#000000" style="" class=""/><path d="m410.712 0h-10.753c-33.964 0-64.118 20.33-76.857 51.803l-13.127 31.081c19.26 4.74 37.862 12.006 55.253 21.602 8.813-22.191 25.165-51.895 60.705-59.597z" fill="#aa956f" data-original="#000000" style="" class=""/><path d="m435.319 223.938c-14.393-29.801-44.732-48.938-77.94-48.938-40.917 0-75.288 28.554-84.24 66.781 6.126 33.957 24.518 64.666 52.531 86.675 4.591 3.606 9.843 7.622 15.608 11.936h.001c34.127 25.535 54.502 66.194 54.502 108.762l-.117 17.53c-.801 9.974-3.404 19.584-7.591 28.437l37.408 16.379 23.11-32.273c17.999-25.135 29.351-54.658 32.828-85.376 3.477-30.719-.989-62.031-12.916-90.553zm-76.584 62.062h-30v-30h30z" fill="#aa956f" data-original="#000000" style="" class=""/><path d="m86.268 511.501 37.408-16.379c-4.187-8.852-6.791-18.463-7.591-28.437l-.048-1.135-.07-16.331c0-42.632 20.375-83.291 54.503-108.827 5.782-4.326 11.033-8.342 15.607-11.936 28.003-22.001 46.392-52.694 52.525-86.635-8.935-38.247-43.317-66.821-84.248-66.821-33.097 0-63.386 19.043-77.824 48.699l-33.285 79.601c-11.926 28.522-16.392 59.834-12.916 90.553 3.477 30.719 14.829 60.241 32.828 85.376zm96.747-225.501h-30v-30h30z" fill="#aa956f" data-original="#000000" style="" class=""/><path d="m154.354 145c43.499 0 81.502 23.966 101.513 59.384 20.01-35.418 58.013-59.384 101.512-59.384 5.812 0 11.558.44 17.202 1.285-3.142-2.39-6.355-4.691-9.641-6.89-27.805-18.605-54.964-32.445-109.064-32.445s-81.261 13.84-109.065 32.445c-3.286 2.199-6.499 4.5-9.64 6.89 5.637-.845 11.377-1.285 17.183-1.285z" fill="#aa956f" data-original="#000000" style="" class=""/><path d="m323.307 364.413c-5.954-4.454-11.395-8.615-16.17-12.366-20.474-16.085-41.929-42.546-51.262-65.522-9.167 23.226-30.789 49.437-51.262 65.522-4.759 3.739-10.199 7.9-16.169 12.367-26.597 19.9-42.476 51.58-42.476 84.742l.067 15.663c1.151 12.723 6.909 24.489 16.249 33.182 9.457 8.802 21.765 13.685 34.657 13.75h.252c16.982 0 32.449-8.74 41.275-23.084l-22.235-13.341c-16.157-9.694-26.193-27.42-26.193-46.262 0-29.748 24.202-53.95 53.95-53.95h23.772c29.748 0 53.95 24.202 53.95 53.95 0 18.842-10.037 36.568-26.194 46.262l-22.233 13.341c8.825 14.343 24.293 23.084 41.275 23.084h.251c12.892-.065 25.2-4.948 34.657-13.75 9.34-8.693 15.097-20.459 16.248-33.182l.066-15.727c-.001-33.1-15.879-64.779-42.475-84.679z" fill="#aa956f" data-original="#000000" style="" class=""/><path d="m267.761 405.113h-23.772c-13.206 0-23.95 10.744-23.95 23.95 0 8.364 4.455 16.234 11.628 20.537l24.208 14.525 24.207-14.525c7.173-4.303 11.629-12.173 11.629-20.537 0-13.206-10.744-23.95-23.95-23.95z" fill="#aa956f" data-original="#000000" style="" class=""/></g></g></svg>
